<?xml version="1.0" encoding="UTF-8"?>
<svg width="36px" height="36px" viewBox="0 0 36 36" version="1.1" xmlns="http://www.w3.org/2000/svg" xmlns:xlink="http://www.w3.org/1999/xlink">
    <title>icon/icon-vote-36</title>
    <g id="icon/icon-vote-36" stroke="none" stroke-width="1" fill="none" fill-rule="evenodd">
        <g id="touch_app-24px" transform="translate(6.000000, 4.000000)">
            <rect id="Rectangle" x="0" y="2" width="24" height="24"></rect>
            <g id="Orion_point-hand" transform="translate(2.000000, 0.000000)" stroke="#FF0069" stroke-linecap="round" stroke-linejoin="round" stroke-width="1.5">
                <path d="M6.84428571,17.6511429 L6.84428571,8.18285714 C6.84428571,7.52958318 7.3738689,7 8.02714286,7 C8.68041682,7 9.21,7.52958318 9.21,8.18285714 C9.21,10.1013703 9.21,11.5402551 9.21,12.4995117 M6.90342857,22.3234286 L1.414,16.5865714 C1.27079182,16.3045752 1.24648065,15.9769728 1.34649586,15.6769272 C1.44651107,15.3768816 1.66252146,15.1293863 1.94628571,14.9897143 C2.22828189,14.8465061 2.55588431,14.8221949 2.85592995,14.9222101 C3.15597559,15.0222254 3.24082113,14.9678227 3.38049316,15.2515869 L6.84428571,17.6511429 M9.21,12.9142857 C9.21,12.2610118 9.73958318,11.7314286 10.3928571,11.7314286 C11.0461311,11.7314286 11.5757143,12.2610118 11.5757143,12.9142857 M11.6052857,12.9142857 C11.6052857,12.2610118 12.1052975,12.3228571 12.7585714,12.3228571 C13.4118454,12.3228571 13.9414286,12.8524403 13.9414286,13.5057143" id="Shape"></path>
                <path d="M6.90342857,22.3234286 C7.4473846,23.2058356 8.40997595,23.7430958 9.44657143,23.7428593 L13.35,23.7428593 C14.9831849,23.7428593 16.3071429,22.4188992 16.3071429,20.7857143 L16.3071429,14.6885714 C16.3071429,14.0352975 15.3476099,13.2687988 14.6943359,13.2687988" id="Path"></path>
            </g>
        </g>
        <path d="M20,11 C20,8.790861 18.209139,7 16,7 C13.790861,7 12,8.790861 12,11" id="Path" stroke="#FF0069" stroke-width="2" stroke-linecap="round" stroke-linejoin="round"></path>
        <path d="M17.663591,14.6387152 C19.0422624,14.007371 20,12.6155313 20,11 C20,8.790861 18.209139,7 16,7 C13.790861,7 12,8.790861 12,11 C12,12.6276178 12.9721218,14.0281845 14.3674229,14.6527574" id="Path" stroke="#FF0069" stroke-width="2" opacity="0.5" stroke-linecap="round" stroke-linejoin="round"></path>
    </g>
</svg>