<?xml version="1.0" encoding="UTF-8"?>
<svg width="36px" height="36px" viewBox="0 0 36 36" version="1.1" xmlns="http://www.w3.org/2000/svg" xmlns:xlink="http://www.w3.org/1999/xlink">
    <title>icon/icon-timer-36</title>
    <g id="icon/icon-timer-36" stroke="none" stroke-width="1" fill="none" fill-rule="evenodd">
        <polygon id="Path" points="6 6 30 6 30 30 6 30"></polygon>
        <path d="M20.6621349,11.453615 C19.8293388,11.1598308 18.9333346,11 18,11 C13.581722,11 10,14.581722 10,19 C10,23.418278 13.581722,27 18,27 C22.418278,27 26,23.418278 26,19 C26,16.8875412 25.1812293,14.9663165 23.8437244,13.5363626 L25.5606602,12" id="Path" stroke="#FF0069" stroke-width="2" stroke-linejoin="round"></path>
        <path d="M20.6621349,11.453615 C19.8293388,11.1598308 18.9333346,11 18,11 C13.581722,11 10,14.581722 10,19 C10,23.418278 13.581722,27 18,27 C22.418278,27 26,23.418278 26,19 C26,16.8875412 25.1812293,14.9663165 23.8437244,13.5363626" id="Path" stroke="#FF0069" stroke-width="2" stroke-linecap="round" stroke-linejoin="round"></path>
        <path d="M15.5,8.53881836 L15.5,8.5 C15.5,7.94771525 15.9477153,7.5 16.5,7.5 L19.5,7.5 C20.0522847,7.5 20.5,7.94771525 20.5,8.5 L20.5,8.58129883" id="Path" stroke="#FF0069" stroke-width="1.5" stroke-linecap="square"></path>
        <line x1="18" y1="19.5" x2="18" y2="15.5" id="Line" stroke="#FF0069" stroke-width="1.5" opacity="0.5" stroke-linecap="round"></line>
    </g>
</svg>